<?xml version="1.0"?>
<svg width="32" height="32" xmlns="http://www.w3.org/2000/svg" xmlns:svg="http://www.w3.org/2000/svg" version="1.1">
 <g class="layer">
  <title>Layer 1</title>
  <g fill="none" fill-rule="evenodd" id="Page-1">
   <g fill="#157EFB" id="icon-31-book-bookmark">
    <path d="m14.95,5.51l-5.09,0l0,25.99l19.08,0l0,-25.37l0,-0.62l-0.64,0c-1.06,0 -1.91,-0.83 -1.91,-1.86c0,-1.03 0.86,-1.86 1.91,-1.86l0.64,0l0,-1.24l-22.27,0c-1.74,0 -3.17,1.37 -3.17,3.09l0,24.13c0,2.05 1.7,3.71 3.8,3.71l1.28,0l0,-25.99l-1.92,0c-1.04,0 -1.9,-0.83 -1.9,-1.86c0,-1.03 0.85,-1.86 1.9,-1.86l19.09,0c0,0 -0.64,0.92 -0.64,1.82c0,0.92 0.64,1.89 0.64,1.89l-3.18,0l0,14.85l-3.82,-3.71l-3.82,3.71l0,-14.85l0,0zm1.27,0l0,11.88l2.54,-2.48l2.54,2.48l0,-11.88l-5.09,0l0,0z" id="book-bookmark"/>
   </g>
  </g>
 </g>
</svg>